<svg width="46" height="34" viewBox="0 0 46 34" fill="none" xmlns="http://www.w3.org/2000/svg">
<circle cx="21.4544" cy="16.1336" r="6.27362" fill="#F4A419"/>
<path d="M45.043 0.0126953H45.543V7.68555L45.0459 7.68848L45.043 7.18848L45.0449 7.68848H45.0176C44.9991 7.68859 44.9714 7.68925 44.9355 7.68945C44.8629 7.68986 44.7546 7.68965 44.6143 7.69043C44.333 7.692 43.9201 7.69444 43.3955 7.69727C42.3456 7.70292 40.8454 7.71085 39.0459 7.71973C36.1995 7.73377 32.6024 7.74842 28.8486 7.7627C26.8517 5.97834 24.2179 4.89165 21.3291 4.8916C18.4217 4.8916 15.7711 5.99098 13.7695 7.7959C13.3838 7.79569 13.0091 7.79739 12.6465 7.79688C10.8466 7.79432 9.3442 7.78788 8.29199 7.77637C7.81615 7.77116 7.42952 7.76337 7.14844 7.75586V27.3525C9.82446 27.3515 14.4666 27.3419 19.5312 27.332C20.1168 27.4257 20.7172 27.4766 21.3291 27.4766C21.952 27.4766 22.5627 27.4232 23.1582 27.3262C28.7243 27.3151 34.3592 27.3046 38.1436 27.3037V18.6924H32.3379C32.5209 17.8856 32.6211 17.0468 32.6211 16.1846C32.6211 14.4179 32.2155 12.7459 31.4922 11.2568H45.543V33.749H0V0H0.5L45.043 0.0126953Z" fill="white"/>
</svg>
