<svg width="179" height="132" viewBox="0 0 179 132" fill="none" xmlns="http://www.w3.org/2000/svg">
<circle cx="84" cy="63.0029" r="25" fill="#E6AF2E"/>
<path d="M178 0.253906H178.5V27.8516L178.003 27.8545L178 27.3545L178.001 27.8545C178 27.8545 177.998 27.8545 177.996 27.8545C177.991 27.8545 177.984 27.8554 177.975 27.8555C177.956 27.8556 177.928 27.8553 177.892 27.8555C177.818 27.8559 177.708 27.8566 177.563 27.8574C177.274 27.8591 176.844 27.8611 176.284 27.8643C175.164 27.8705 173.52 27.8794 171.429 27.8906C167.245 27.9132 161.268 27.9451 154.097 27.9805C142.316 28.0386 127.311 28.1038 111.729 28.1621C104.008 21.9354 94.1905 18.2051 83.5 18.2051C72.7366 18.2051 62.8571 21.9856 55.1133 28.2891C52.9611 28.2885 50.8875 28.2899 48.9053 28.2871C41.7332 28.2769 35.7544 28.2509 31.5684 28.2051C29.476 28.1822 27.8286 28.1549 26.7031 28.1211C26.1982 28.1059 25.794 28.0873 25.5 28.0693V109.204C37.3227 109.203 60.7604 109.155 85.3125 109.105C109.961 109.056 135.732 109.007 152 109.006V71.7051H127.694C128.221 68.9523 128.5 66.1112 128.5 63.2051C128.5 56.7486 127.137 50.6111 124.688 45.0605H178.5V131.705H0V0.202148H0.5L178 0.253906Z" fill="black"/>
</svg>
