<svg width="443" height="133" viewBox="0 0 443 133" fill="none" xmlns="http://www.w3.org/2000/svg">
<path d="M202.952 132.003V45.2029H247.468V60.0829H219.94V80.7909H244.492V95.1749H219.94V117.619H247.964V132.003H202.952ZM375.546 45.2029L357.938 132.003H334.626L317.018 45.2029H334.874L341.694 85.3789L345.91 111.419H346.654L350.87 85.3789L357.69 45.2029H375.546ZM414.158 132.003L411.554 118.239H391.962L389.358 132.003H372.494L389.234 45.2029H414.902L430.774 132.003H414.158ZM401.51 61.3229L396.674 90.2149L393.946 104.971H409.446L406.594 90.2149L401.758 61.3229H401.51Z" fill="#D08F12"/>
<path d="M296.778 45.2029C302.565 49.9149 306.864 56.2389 309.674 64.1749C312.485 72.1109 313.89 80.2949 313.89 88.7269C313.89 97.0763 312.526 105.012 309.798 112.535C307.07 120.058 302.73 126.547 296.778 132.003H271.234C265.282 126.547 260.942 120.058 258.214 112.535C255.486 105.012 254.122 97.0763 254.122 88.7269C254.122 80.2949 255.528 72.1109 258.338 64.1749C261.149 56.2389 265.448 49.9149 271.234 45.2029H296.778ZM279.542 117.619H288.47C290.537 115.222 292.273 111.336 293.678 105.963C295.166 100.507 295.91 94.7616 295.91 88.7269C295.91 82.6923 295.208 77.0296 293.802 71.7389C292.397 66.3656 290.661 62.4803 288.594 60.0829H279.542C277.476 62.4803 275.698 66.3656 274.21 71.7389C272.805 77.0296 272.102 82.6923 272.102 88.7269C272.102 94.7616 272.805 100.507 274.21 105.963C275.698 111.336 277.476 115.222 279.542 117.619Z" fill="black"/>
<circle cx="84" cy="64.0029" r="25" fill="#D08F12"/>
<path d="M442.5 29.0029H442L200.79 28.8037H200.761C200.739 28.8038 200.708 28.8045 200.666 28.8047C200.582 28.8051 200.455 28.8058 200.289 28.8066C199.957 28.8084 199.463 28.8102 198.819 28.8135C197.532 28.8201 195.643 28.8298 193.239 28.8418C188.432 28.8658 181.565 28.8997 173.325 28.9375C156.845 29.0131 134.87 29.1063 112.896 29.1768C112.514 29.178 112.132 29.1785 111.75 29.1797C104.027 22.9425 94.2005 19.2051 83.5 19.2051C72.7423 19.2051 62.868 22.9819 55.126 29.2793C54.2248 29.2788 53.3381 29.2801 52.4668 29.2793C44.2263 29.2716 37.3577 29.2475 32.5488 29.2031C30.1449 29.1809 28.2528 29.1544 26.9609 29.1211C26.3318 29.1048 25.8404 29.086 25.5 29.0664V110.204C37.4047 110.203 63.8014 110.155 91.3125 110.105C118.931 110.056 147.672 110.007 164 110.006V72.7051H127.694C128.221 69.9523 128.5 67.1112 128.5 64.2051C128.5 57.7486 127.137 51.6111 124.688 46.0605H190.365V132.705H0V1.20215H200.788L441.997 0.00292969L442.5 0V29.0029Z" fill="black"/>
</svg>
